<svg width="16px" height="32px" viewBox="0 0 16 32" version="1.1" xmlns="http://www.w3.org/2000/svg" xmlns:xlink="http://www.w3.org/1999/xlink">
    <g>
        <path d="M7,7 L4.50043583,7 C4.23079681,7 4,7.22595492 4,7.50468445 L4,8.49531555 C4,8.78596497 4.22405275,9 4.50043583,9 L7,9 L7,11.4995642 C7,11.7692032 7.22595492,12 7.50468445,12 L8.49531555,12 C8.78596497,12 9,11.7759472 9,11.4995642 L9,9 L11.4995642,9 C11.7692032,9 12,8.77404508 12,8.49531555 L12,7.50468445 C12,7.21403503 11.7759472,7 11.4995642,7 L9,7 L9,4.50043583 C9,4.23079681 8.77404508,4 8.49531555,4 L7.50468445,4 C7.21403503,4 7,4.22405275 7,4.50043583 L7,7 Z" fill="#929394"></path>
        <rect fill="#929394" x="4" y="23" width="8" height="2" rx="0.5"></rect>
        <rect fill="#545455" x="0" y="16" width="16" height="1"></rect>
    </g>
</svg>